<svg width="232" height="195" viewBox="0 0 232 195" fill="none" xmlns="http://www.w3.org/2000/svg">
<g id="Group">
<g id="Group_2">
<path id="Vector" d="M22.3462 112.843C21.6075 97.4612 29.6082 82.8068 39.7135 71.7462C50.1477 60.3385 64.3054 50.9473 79.7149 48.3513C87.9031 46.9644 95.907 48.0551 103.55 51.2898C113.349 55.4579 122.046 60.8919 133.106 59.4977C142.972 58.2639 152.264 54.4388 161.96 52.4049C169.371 50.864 177.116 50.8536 184.484 52.5796C197.981 55.7733 209.853 65.064 213.708 78.7868C218.278 95.0854 212.47 113.635 197.497 122.255C190.627 126.207 182.851 128.282 175.099 129.663C167.098 131.086 158.767 131.147 151.125 134.21C136.907 139.894 130.935 154.028 119.788 163.396C104.134 176.554 79.6677 175.86 61.5743 168.953C51.985 165.298 42.5546 159.324 36.8943 150.56C31.2708 141.877 29.4343 131.348 24.4658 122.338C23.2439 120.143 19.6724 121.767 20.9236 123.972C25.5388 132.316 27.4789 141.845 32.1453 150.14C36.8484 158.515 44.2021 164.691 52.5955 169.142C69.2466 177.96 89.9549 180.242 107.924 174.341C116.047 171.69 122.673 166.776 128.328 160.431C133.53 154.588 137.832 147.841 143.974 142.882C151.634 136.71 160.453 135.691 169.836 134.412C178.204 133.259 186.64 131.563 194.413 128.146C210.632 121.026 219.434 106.099 219.03 88.4638C218.677 73.3929 210.504 60.247 197.268 53.1975C182.223 45.1761 166.262 46.8306 150.469 51.3615C144.948 52.9331 139.395 54.593 133.711 55.4343C127.042 56.4128 121.13 54.9917 115.034 52.2634C105.894 48.2059 97.3138 43.7193 87.0524 43.7683C71.1455 43.8352 55.8997 51.7511 44.0888 62.012C32.1244 72.4171 22.1842 86.4532 19.1944 102.261C18.4821 105.984 18.3047 109.703 18.4827 113.454C18.6212 116.051 22.4881 115.34 22.3462 112.843Z" fill="#D7D7D7"/>
</g>
</g>
</svg>
