<svg width="176" height="228" viewBox="0 0 176 228" fill="none" xmlns="http://www.w3.org/2000/svg">
<g id="Group">
<g id="Group_2">
<path id="Vector" d="M18.629 189.355C12.6916 184.039 9.69606 175.827 7.70609 168.323C5.67928 160.738 4.46843 152.752 4.34231 144.901C4.17936 136.968 4.81119 128.962 6.05159 121.114C7.2449 113.483 9.08566 105.456 13.4104 98.9192C17.1075 93.3555 21.5611 89.9815 28.264 89.451C34.52 88.956 40.9002 89.7463 47.0287 88.065C58.6669 84.8416 64.3152 74.3734 68.9272 64.0906C74.5701 51.4765 80.2164 38.7632 94.2758 33.9584C107.863 29.347 123.31 31.421 135.484 38.8141C147.27 45.996 156.905 58.98 157.186 73.2539C157.417 84.6951 148.848 91.9705 140.985 98.8711C132.172 106.625 124.369 115.256 124.8 127.777C125.082 135.117 127.824 141.761 130.424 148.52C131.442 151.175 132.641 154.332 131.523 157.168C129.856 161.306 124.568 163.601 120.883 165.35C118.618 166.42 120.228 169.998 122.504 168.899C128.081 166.276 135.351 162.505 135.879 155.499C136.3 149.592 132.468 143.817 130.754 138.358C128.601 131.564 127.674 124.253 130.441 117.507C132.615 112.183 136.74 107.984 140.922 104.174C148.977 96.8422 158.646 89.8404 160.694 78.3729C163.097 64.9597 155.44 50.5987 145.9 41.77C135.324 31.9546 120.675 26.8267 106.287 27.6575C91.2543 28.5172 79.0948 35.6677 71.7573 48.8931C65.6962 59.8448 62.5421 75.8266 50.7619 82.3137C39.2452 88.6304 24.5432 81.3054 14.5048 91.2854C8.43491 97.3096 5.39276 105.427 3.52676 113.613C1.30939 123.376 0.386212 133.519 0.448166 143.524C0.50741 152.457 1.77215 161.467 4.18986 170.068C6.50046 178.327 9.8774 186.68 16.3728 192.471C18.2237 194.229 20.4833 191.013 18.629 189.355Z" fill="#D7D7D7"/>
</g>
</g>
</svg>
