<svg width="67" height="67" viewBox="0 0 67 67" fill="none" xmlns="http://www.w3.org/2000/svg">
<g id="Group">
<g id="Group_2">
<path id="Vector" d="M44.3459 53.859C43.368 46.1245 42.5945 38.334 42.0162 30.5341C41.3528 21.7022 40.7448 12.7122 41.457 3.88848C41.6214 1.84293 39.3514 0.496797 37.8201 2.12516C27.6669 12.8631 15.9125 21.9289 5.94538 32.8248C4.12642 34.8067 7.30005 37.5652 9.119 35.5833C19.0861 24.6875 30.8405 15.6216 40.9937 4.88368C39.7845 4.28041 38.5474 3.69578 37.3568 3.12039C36.6077 12.1301 37.1228 21.2224 37.8051 30.203C38.393 38.1982 39.176 46.1839 40.1821 54.1415C40.502 56.791 44.6844 56.5363 44.3459 53.859Z" fill="#DBDBDB"/>
</g>
</g>
</svg>
