<svg width="130" height="218" viewBox="0 0 130 218" fill="none" xmlns="http://www.w3.org/2000/svg">
<g id="Group">
<g id="Group_2">
<path id="Vector" d="M12.8091 208.129C34.2532 187.399 56.1737 164.996 68.1012 137.197C73.8971 123.667 75.7461 109.532 76.426 94.9447C77.1176 79.8125 76.106 63.3466 81.8223 49.0648C85.0223 41.0743 89.9505 33.9118 95.7371 27.5652C98.6886 24.3076 101.848 21.2831 105.19 18.4141C106.9 16.9341 108.675 15.5189 110.436 14.1297C111.81 13.065 113.389 11.1314 114.997 10.5721C117.201 9.7918 116.051 6.36996 113.847 7.15027C111.253 8.06065 110.024 9.81238 107.951 11.5002C105.037 13.902 102.083 16.252 99.3118 18.8222C93.7819 23.9368 88.7725 29.6342 84.634 35.9272C80.7025 41.9347 77.668 48.5506 75.9581 55.5671C74.184 62.843 73.8644 70.5193 73.4924 77.9752C72.7371 93.6261 73.1247 109.652 68.7733 124.84C64.3316 140.274 55.6169 154.391 45.8865 167.03C35.1597 180.954 22.7426 193.518 10.1169 205.72C8.4335 207.342 11.1516 209.764 12.8091 208.129Z" fill="#DCD3D7"/>
</g>
</g>
</svg>
