<svg width="105" height="104" viewBox="0 0 105 104" fill="none" xmlns="http://www.w3.org/2000/svg">
<g id="Group">
<g id="Group_2">
<g id="Group_3">
<path id="Vector" d="M88.6237 69.069C91.3535 60.5779 91.1067 50.109 88.0757 41.7367C85.9846 35.974 81.1995 28.4673 73.947 30.0748C67.5953 31.4918 64.9519 39.1219 65.0518 44.8995C65.174 51.389 67.0407 58.26 70.4052 63.8364C72.0619 66.585 74.3 69.2826 77.275 70.6937C80.3982 72.1811 83.6921 71.8818 86.7721 70.4396C88.4478 69.6575 86.9306 67.2283 85.2706 67.9937C74.2264 73.1389 68.8316 54.9482 68.0592 47.346C67.5661 42.4552 68.2735 36.0851 73.1288 33.4205C78.6523 30.3783 83.3722 37.3527 84.9972 41.6729C88.1065 49.9617 88.5499 59.9871 85.8358 68.4615C85.2747 70.1958 88.0637 70.8356 88.6237 69.069Z" fill="#E1D4DB"/>
</g>
</g>
<g id="Group_4">
<g id="Group_5">
<path id="Vector_2" d="M86.436 68.4923C82.936 62.7258 81.3185 56.0574 79.5139 49.6216C79.021 47.8399 76.2619 48.6727 76.7706 50.4377C78.6469 57.0979 80.3852 64.0054 84.005 69.9785C84.9449 71.5517 87.4081 70.0644 86.436 68.4923Z" fill="#E1D4DB"/>
</g>
</g>
<g id="Group_6">
<g id="Group_7">
<path id="Vector_3" d="M66.9997 76.0898C62.5935 72.9269 58.0942 69.8965 53.409 67.1311C48.0635 63.9658 42.0932 60.4965 35.8617 59.5454C33.6652 59.2106 31.22 59.2076 29.335 60.5469C27.26 62.0218 26.694 64.6307 26.7532 67.0416C26.8394 70.828 27.9356 74.8088 30.2641 77.8113C32.9304 81.2563 36.7436 83.5799 40.7883 85.0217C49.4505 88.0975 61.5297 87.5667 66.9134 79.0234C67.9011 77.4698 65.3497 76.1424 64.3777 77.6793C60.1823 84.3549 50.5766 84.7583 43.7353 82.9522C39.9637 81.9551 36.2794 80.1294 33.5676 77.3011C31.1238 74.7558 29.9832 71.424 29.664 67.9528C29.5639 66.8225 29.5264 65.6254 29.8645 64.5297C30.0697 63.843 30.4878 63.2306 30.8836 62.9427C32.1336 62.0122 34.0152 62.1142 35.7253 62.4321C41.2785 63.4372 46.5218 66.4439 51.3375 69.2375C54.1745 70.8959 56.9499 72.6534 59.6783 74.461C60.7369 75.1721 61.7954 75.8832 62.855 76.6267C63.3024 76.9525 63.7488 77.2459 64.1962 77.5717C64.5936 77.8505 64.8918 78.0677 65.041 78.1763C66.5313 79.2299 68.5067 77.1591 66.9997 76.0898Z" fill="#E1D4DB"/>
</g>
</g>
<g id="Group_8">
<g id="Group_9">
<path id="Vector_4" d="M64.7903 77.4073C58.6204 76.3571 52.769 74.0985 46.819 72.3126C45.0537 71.786 44.4123 74.5754 46.1776 75.1021C52.1276 76.8879 57.9791 79.1466 64.1489 80.1967C65.9562 80.5116 66.6132 77.7055 64.7903 77.4073Z" fill="#E1D4DB"/>
</g>
</g>
<g id="Group_10">
<g id="Group_11">
<path id="Vector_5" d="M55.6001 47.1114C54.4289 39.7 52.9266 31.5381 48.0754 25.5395C45.1108 21.8772 40.704 18.18 35.9481 17.2952C33.9124 16.9229 31.7832 17.1851 30.2091 18.6278C28.399 20.2886 27.929 22.8621 27.8078 25.1977C27.5129 31.2956 31.3773 36.8076 35.7882 40.6342C40.615 44.82 46.9205 48.1329 53.3956 48.5904C55.2291 48.7101 55.1233 45.8473 53.3065 45.7433C48.5845 45.4242 43.8967 43.0961 40.0881 40.4C35.9644 37.471 32.1122 33.3836 30.9335 28.3204C30.1862 25.1381 30.5256 19.4274 35.0303 20.0449C38.9652 20.5672 42.6587 23.7204 45.2253 26.5695C50.1418 32.0641 51.6254 40.1456 52.7364 47.1865C53.0196 48.991 55.8833 48.9159 55.6001 47.1114Z" fill="#E1D4DB"/>
</g>
</g>
<g id="Group_12">
<g id="Group_13">
<path id="Vector_6" d="M53.8799 44.9317C49.9761 41.267 46.4975 37.2164 42.5937 33.5517C41.2591 32.2988 39.2837 34.3697 40.635 35.6382C44.5387 39.3029 48.0174 43.3536 51.9212 47.0183C53.2725 48.2868 55.2312 46.2003 53.8799 44.9317Z" fill="#E1D4DB"/>
</g>
</g>
</g>
</svg>
