<svg width="150" height="138" viewBox="0 0 150 138" fill="none" xmlns="http://www.w3.org/2000/svg">
<g id="Group">
<g id="Group_2">
<g id="Group_3">
<path id="Vector" d="M42.3719 100.265C68.8534 111.94 106.435 115.314 129.52 94.6568C130.152 94.0969 130.047 93.1121 129.529 92.5046C123.931 86.0787 115.174 82.648 107.352 79.7846C98.0076 76.3511 88.8213 74.1013 78.8099 74.0089C69.5815 73.9202 61.4139 75.7328 53.1792 79.9441C49.0513 82.0438 45.1086 84.5024 41.2379 87.0307C39.5168 88.1664 37.7837 89.3231 36.0715 90.492C34.8697 91.3111 33.2409 91.9957 32.5008 93.2775C32.0641 94.034 32.3827 94.8904 33.0523 95.333C35.9765 97.3576 39.2866 98.5682 42.3719 100.265C44.0783 101.195 45.6158 98.58 43.8884 97.6387C40.8032 95.9415 37.493 94.7309 34.5777 92.7395C34.7644 93.4357 34.9512 94.1319 35.1291 94.795C35.6265 93.9334 38.0641 92.8192 39.0273 92.1705C40.6368 91.0824 42.2673 90.0065 43.8856 88.9516C47.3819 86.6835 50.9501 84.4849 54.6736 82.6001C62.6156 78.5559 70.445 76.9404 79.3452 77.0637C88.6367 77.1888 97.113 79.3088 105.79 82.4412C113.339 85.1468 121.952 88.4383 127.367 94.6466C127.367 93.9182 127.376 93.2229 127.376 92.4945C116.254 102.435 101.177 106.115 86.5698 106.311C72.0166 106.51 57.2088 103.508 43.8674 97.6266C42.1181 96.8688 40.5806 99.4834 42.3719 100.265Z" fill="#DBDBDB"/>
</g>
</g>
<g id="Group_4">
<g id="Group_5">
<path id="Vector_2" d="M37.663 95.165C53.2709 92.6049 69.1181 91.864 84.9159 92.1313C91.7174 92.2477 98.4841 92.0358 105.286 91.9566C112.393 91.8848 119.736 92.0338 126.479 94.5821C128.298 95.268 129.072 92.3247 127.253 91.6389C120.754 89.2031 113.649 88.8836 106.796 88.9054C99.4968 88.9221 92.236 89.2129 84.9347 89.0882C68.8538 88.8256 52.7955 89.6407 36.9135 92.2387C34.9579 92.5666 35.7617 95.4962 37.663 95.165Z" fill="#DBDBDB"/>
</g>
</g>
<g id="Group_6">
<g id="Group_7">
<path id="Vector_3" d="M118.125 94.7747C101.833 98.2286 85.2686 102.057 68.4979 100.416C66.5626 100.223 66.5771 103.258 68.5124 103.45C85.5208 105.117 102.372 101.229 118.896 97.7132C120.813 97.3068 120.03 94.3894 118.125 94.7747Z" fill="#DBDBDB"/>
</g>
</g>
<g id="Group_8">
<g id="Group_9">
<path id="Vector_4" d="M94.0143 82.9273C84.4527 81.8618 75.0681 83.1118 65.6284 84.5542C63.6972 84.8401 64.5009 87.7697 66.4112 87.4717C75.6308 86.0704 84.738 84.9123 94.0409 85.9406C95.9729 86.1875 95.9375 83.1411 94.0143 82.9273Z" fill="#DBDBDB"/>
</g>
</g>
<g id="Group_10">
<g id="Group_11">
<path id="Vector_5" d="M64.0544 95.973C59.9703 95.5203 55.9364 94.5922 51.8086 94.5065C50.9837 94.4785 50.297 95.2308 50.3026 96.0466C50.2961 96.8833 51.007 97.5459 51.844 97.5529C55.9718 97.6386 60.0057 98.5667 64.0898 99.0194C64.9115 99.1016 65.6046 98.2409 65.5958 97.4793C65.5723 96.5973 64.8639 96.0762 64.0544 95.973Z" fill="#DBDBDB"/>
</g>
</g>
<g id="Group_12">
<g id="Group_13">
<g id="Group_14">
<path id="Vector_6" d="M15.6893 72.6721C44.689 71.1475 79.5462 57.1466 90.886 28.2792C91.2177 27.462 90.4801 26.7 89.8008 26.4198C81.784 23.1642 72.1988 24.1303 63.851 25.1384C54.6265 26.2567 46.0401 28.1637 37.5894 32.1663C29.1056 36.1779 22.3483 41.3263 16.6892 48.8459C13.7824 52.7152 11.2509 56.8572 8.82446 61.0598C7.74471 62.93 6.67386 64.8334 5.61514 66.7157C4.87184 68.0517 3.72498 69.4068 3.64322 70.9566C3.60761 71.5525 4.13729 72.3346 4.78428 72.4279C8.42841 72.9629 12.0314 72.5495 15.6893 72.6721C17.6432 72.7355 17.6287 69.7012 15.6748 69.6378C12.3 69.5105 8.90166 69.958 5.54624 69.5057C5.92956 70.0072 6.304 70.4755 6.68731 70.977C6.74559 70.002 8.54675 67.7078 9.14122 66.6782C10.1393 64.9009 11.1374 63.1236 12.1775 61.3707C14.3823 57.6004 16.6922 53.8908 19.3264 50.3965C24.7372 43.2099 31.4297 38.4163 39.5302 34.6317C47.6186 30.8682 55.9001 29.1494 64.7057 28.1254C72.5804 27.2084 81.5178 26.3446 89.0356 29.3962C88.6709 28.7654 88.3151 28.1677 87.9504 27.5369C82.4875 41.4177 70.6301 51.4666 57.6755 58.2202C44.7661 64.944 30.2062 68.8937 15.6959 69.65C13.7323 69.7491 13.7467 72.7833 15.6893 72.6721Z" fill="#DBDBDB"/>
</g>
</g>
<g id="Group_15">
<g id="Group_16">
<path id="Vector_7" d="M8.85167 70.4335C22.02 60.8333 36.2024 52.8272 50.8716 45.7746C56.9178 42.8774 62.7578 39.6089 68.7054 36.5426C74.6862 33.4674 81.022 30.4572 87.7758 29.7335C89.6917 29.5229 89.6983 26.5008 87.7613 26.6993C74.4948 28.1176 63.1349 36.5765 51.3804 42.1739C36.0117 49.467 21.1054 57.7557 7.34512 67.7986C5.78663 68.9441 7.29318 71.579 8.85167 70.4335Z" fill="#DBDBDB"/>
</g>
</g>
<g id="Group_17">
<g id="Group_18">
<path id="Vector_8" d="M80.6772 33.6762C67.8129 44.0123 54.8411 54.8747 39.2969 60.9178C37.4934 61.6136 38.264 64.5521 40.0796 63.8352C56.1576 57.596 69.5006 46.5277 82.821 35.8386C84.3407 34.6146 82.1847 32.4733 80.6772 33.6762Z" fill="#DBDBDB"/>
</g>
</g>
<g id="Group_19">
<g id="Group_20">
<path id="Vector_9" d="M54.1642 33.8071C45.1321 37.1658 37.3235 42.4357 29.5197 47.9886C27.9402 49.122 29.4467 51.7569 31.0262 50.6235C38.5914 45.2411 46.18 40.0123 54.9469 36.7245C56.7714 36.0408 55.9887 33.1234 54.1642 33.8071Z" fill="#DBDBDB"/>
</g>
</g>
<g id="Group_21">
<g id="Group_22">
<path id="Vector_10" d="M33.3131 58.9482C29.3413 60.4375 25.2119 61.4715 21.3711 63.3166C20.6651 63.6655 20.3957 64.7147 20.7903 65.3909C21.2569 66.1366 22.1053 66.3182 22.8655 65.9726C23.8069 65.5075 24.5429 65.2039 25.4446 64.856C26.4127 64.4903 27.3897 64.1578 28.3666 63.8253C30.2753 63.1901 32.1807 62.6091 34.0715 61.9077C34.8164 61.6373 35.4157 60.8906 35.1392 60.0585C34.9556 59.3081 34.1243 58.6601 33.3131 58.9482Z" fill="#DBDBDB"/>
</g>
</g>
</g>
</g>
</svg>
